<svg width="38" height="38" viewBox="0 0 38 38" fill="none" xmlns="http://www.w3.org/2000/svg">
<rect width="38" height="38" rx="5" fill="#E8E8E8"/>
<path d="M21.1947 13.3083L16.2051 15.7034C15.8211 15.8877 15.4108 15.9339 14.9926 15.8402C14.7188 15.7789 14.5819 15.7482 14.4717 15.7356C13.1031 15.5793 12.25 16.6626 12.25 17.9082V18.5918C12.25 19.8374 13.1031 20.9207 14.4717 20.7644C14.5819 20.7518 14.7188 20.7211 14.9926 20.6598C15.4108 20.5661 15.8211 20.6123 16.2051 20.7966L21.1947 23.1917C22.3401 23.7416 22.9127 24.0164 23.5513 23.8022C24.1898 23.5879 24.4089 23.1281 24.8473 22.2085C26.0509 19.6834 26.0509 16.8166 24.8473 14.2915C24.4089 13.3719 24.1898 12.9121 23.5513 12.6978C22.9127 12.4835 22.3401 12.7585 21.1947 13.3083Z" stroke="#9692A4" stroke-width="1.125" stroke-linecap="round" stroke-linejoin="round"/>
<path d="M19.75 22.75V23.125C19.75 24.0881 19.75 24.5696 19.582 24.8415C19.358 25.2039 18.9484 25.4088 18.524 25.3704C18.2057 25.3418 17.8205 25.0528 17.05 24.475L16.15 23.8C15.4169 23.2502 15.25 22.9163 15.25 22V20.875" stroke="#9692A4" stroke-width="1.125" stroke-linecap="round" stroke-linejoin="round"/>
<path d="M15.625 20.5V16" stroke="#9692A4" stroke-width="1.125" stroke-linecap="round" stroke-linejoin="round"/>
</svg>
