<svg width="33" height="33" viewBox="0 0 33 33" fill="none" xmlns="http://www.w3.org/2000/svg">
<rect width="32.5457" height="32.5457" rx="4" fill="#E1E7F1"/>
<path d="M18.4129 11.1364C18.3731 10.2003 18.2543 9.60389 17.9014 9.14496C17.7646 8.96688 17.6049 8.80748 17.4264 8.67083C16.7334 8.14014 15.7275 8.14014 13.7156 8.14014H13.2867C10.8606 8.14014 9.64755 8.14014 8.89385 8.89234C8.14017 9.64454 8.14015 10.8552 8.14015 13.2765L8.14014 19.269C8.14013 21.6903 8.14012 22.901 8.89382 23.6532C9.64751 24.4054 10.8606 24.4054 13.2867 24.4054H13.7155C15.7275 24.4054 16.7334 24.4054 17.4264 23.8748C17.6048 23.7381 17.7646 23.5787 17.9014 23.4007C18.2543 22.9417 18.3731 22.3451 18.4129 21.4089" stroke="#141B34" stroke-width="1.2841" stroke-linecap="round" stroke-linejoin="round"/>
<path d="M23.5494 16.2728H13.2766M21.4092 19.2691C21.4092 19.2691 24.4055 17.0624 24.4055 16.2729C24.4055 15.4833 21.4092 13.2766 21.4092 13.2766" stroke="#141B34" stroke-width="1.2841" stroke-linecap="round" stroke-linejoin="round"/>
</svg>
