<svg width="38" height="38" viewBox="0 0 38 38" fill="none" xmlns="http://www.w3.org/2000/svg">
<rect width="38" height="38" rx="5" fill="#E8E8E8"/>
<path d="M18.9415 13.5925C22.5222 12.3718 24.3125 11.7615 25.2755 12.7245C26.2385 13.6874 25.6281 15.4778 24.4075 19.0585L23.5762 21.4969C22.6388 24.2469 22.17 25.6218 21.3973 25.7356C21.1896 25.7662 20.9746 25.7478 20.769 25.6818C20.0046 25.4364 19.6005 23.9867 18.7923 21.0873C18.6131 20.4441 18.5234 20.1225 18.3193 19.8769C18.26 19.8057 18.1943 19.74 18.1231 19.6807C17.8775 19.4766 17.5559 19.3869 16.9128 19.2077C14.0133 18.3995 12.5636 17.9954 12.3182 17.231C12.2522 17.0254 12.2338 16.8104 12.2644 16.6027C12.3782 15.83 13.7531 15.3613 16.5031 14.4238L18.9415 13.5925Z" stroke="#9692A4" stroke-width="1.125"/>
</svg>
